<svg id="Camada_1" data-name="Camada 1" xmlns="http://www.w3.org/2000/svg" viewBox="0 0 207.58 272.56"><defs><style>.cls-1{fill:#f15a24;}</style></defs><path class="cls-1" d="M189.67,79.9c38.66,43.68,12.83,148.89-67.58,149.48h-42L32.65,269.19c-8.9,7.47-22,.7-22-11.4V176.2a59.31,59.31,0,0,1,1.67-14,57.8,57.8,0,0,1,4.87-13.1c-2-3.47-4.3-8-7-13.37C-20,74.17,21.85.25,87,.25h61.36a48.72,48.72,0,0,1,14.43,2C191.7,11.14,209.85,45.82,189.67,79.9ZM178,51.89a31.58,31.58,0,0,0-8.37-21.59,27.64,27.64,0,0,0-20.21-8.94H91.61A70.13,70.13,0,0,0,44.92,38.83c-24.23,21.53-34.59,59-11.7,98.65a49.22,49.22,0,0,1,18.36-8.59C32,105.77,34.74,64.78,64.09,47.79a49.57,49.57,0,0,1,24.84-6.37h60.48c5.59,0,10.13,4.83,10.13,10.81a11.16,11.16,0,0,1-3,7.64A9.79,9.79,0,0,1,149.41,63h-60C73.52,63,60.66,76.77,60.66,93.74a31.72,31.72,0,0,0,8.42,21.71,27.75,27.75,0,0,0,20.31,9h28.32c6,0,10.85,5.18,10.85,11.59a12.07,12.07,0,0,1-3.17,8.21,10.5,10.5,0,0,1-7.68,3.38H57c-14.49,0-26.23,12.54-26.23,28v70.22l46.72-37.43h47.78c52.24-1.36,80.87-74.6,49.43-115.65a56.7,56.7,0,0,1-17.86,7.63c19.43,20.15,17.15,68.32-18.38,83.77a51.38,51.38,0,0,1-20.47,4H58.81c-5.76,0-10.44-5-10.44-11.13a11.43,11.43,0,0,1,3.06-7.88,10.09,10.09,0,0,1,7.38-3.26h59.73c15.64,0,28.3-13.55,28.3-30.24a31.28,31.28,0,0,0-8.28-21.39,27.38,27.38,0,0,0-20-8.85H90c-5.94,0-10.76-5.15-10.76-11.52a11.92,11.92,0,0,1,3.15-8.14A10.39,10.39,0,0,1,90,82.43h59.39C165.19,82.43,178,68.76,178,51.89Z"/></svg>