<svg id="Layer_2" data-name="Layer 2" xmlns="http://www.w3.org/2000/svg" viewBox="0 0 2200 556.41"><defs><style>.cls-1{fill:#fff;}</style></defs><path class="cls-1" d="M295.2,121.27c31.45-51.89,3.16-104.68-41.94-118.19A77.87,77.87,0,0,0,230.77,0H135.15C33.67,0-31.52,112.55,15.64,206.33c4.12,8.19,7.77,15.08,10.82,20.37a87.37,87.37,0,0,0-7.59,19.93,89.1,89.1,0,0,0-2.59,21.27V392.12c0,18.42,20.34,28.73,34.22,17.36l73.93-60.61h65.44C315.19,348,355.45,187.78,295.2,121.27ZM194.76,317H120.3L47.5,374V267.05c0-23.58,18.28-42.67,40.87-42.67h94.68a16.52,16.52,0,0,0,12-5.15,18.13,18.13,0,0,0,4.94-12.5c0-9.75-7.57-17.65-16.91-17.65H138.92a43.76,43.76,0,0,1-31.66-13.69,47.64,47.64,0,0,1-13.11-33c0-25.84,20-46.76,44.77-46.76h93.53a15.4,15.4,0,0,0,11.16-4.81,16.82,16.82,0,0,0,4.63-11.64c0-9.09-7.08-16.46-15.79-16.46H138.2a78.64,78.64,0,0,0-38.7,9.7C53.76,98.25,49.46,160.66,80,195.86a77.49,77.49,0,0,0-28.6,13.08C15.71,148.6,31.86,91.52,69.63,58.75,90,41.12,115.92,32.14,142.38,32.14h90.07A43.56,43.56,0,0,1,264,45.75a47.47,47.47,0,0,1,13,32.88c0,25.68-19.94,46.49-44.54,46.49H139.91A16.43,16.43,0,0,0,128,130.25a17.88,17.88,0,0,0-4.91,12.39c0,9.7,7.51,17.55,16.78,17.55h44.44a43.08,43.08,0,0,1,31.19,13.47,47,47,0,0,1,12.91,32.57c0,25.41-19.73,46-44.1,46H91.27a15.9,15.9,0,0,0-11.51,5,17.23,17.23,0,0,0-4.76,12c0,9.38,7.28,17,16.27,17H183.4a81.69,81.69,0,0,0,31.91-6.14c55.36-23.53,58.93-96.87,28.65-127.55a90.19,90.19,0,0,0,27.83-11.61C320.79,203.38,276.17,314.9,194.76,317Z"/><path class="cls-1" d="M528.22,162.31a58.38,58.38,0,0,0-16.69-10.23,122.11,122.11,0,0,0-19.15-6q-9.76-2.2-17.39-3.83a65.92,65.92,0,0,1-12.8-3.9,20.56,20.56,0,0,1-7.85-5.59c-1.79-2.21-2.68-5.17-2.68-8.9a17.91,17.91,0,0,1,1.84-8,18.53,18.53,0,0,1,5.29-6.47,25.9,25.9,0,0,1,8.41-4.27,38,38,0,0,1,11.31-1.55,54.52,54.52,0,0,1,9.75.74,29.94,29.94,0,0,1,7.13,2.21,41.16,41.16,0,0,1,6.15,3.53l6.78,4.71a18.44,18.44,0,0,0,5.43,2.72,19.6,19.6,0,0,0,5.57.81A17.56,17.56,0,0,0,532,113a17.3,17.3,0,0,0,3.74-5.66,18.29,18.29,0,0,0,.92-10.77,11.62,11.62,0,0,0-1.55-3.69,49.42,49.42,0,0,0-10.22-12.48,58.26,58.26,0,0,0-13.68-8.94,75.31,75.31,0,0,0-16-5.39A80.37,80.37,0,0,0,478,64.24a67.74,67.74,0,0,0-24.6,4.48,64.62,64.62,0,0,0-20.37,12.44,58.25,58.25,0,0,0-13.81,18.91A56.1,56.1,0,0,0,414.16,124a53.28,53.28,0,0,0,4.58,22.66,50.54,50.54,0,0,0,13.18,17.21A71.88,71.88,0,0,0,452.79,176a142,142,0,0,0,27.76,7.43q4.51.74,9.24,1.62a31.89,31.89,0,0,1,8.53,2.8,17.5,17.5,0,0,1,6.27,5.22c1.64,2.21,2.46,5.22,2.46,9.05a14.15,14.15,0,0,1-2.39,8,20,20,0,0,1-6.42,6,33.77,33.77,0,0,1-9.09,3.75,40.24,40.24,0,0,1-10.29,1.33q-11.13,0-19-4.2a42.22,42.22,0,0,1-13.95-12.28,39,39,0,0,0-8.53-8.61,15.06,15.06,0,0,0-8.67-2.87,16.75,16.75,0,0,0-6.55,1.4,18.79,18.79,0,0,0-5.92,4,22.09,22.09,0,0,0-4.3,6,17,17,0,0,0-1.69,7.58,24.51,24.51,0,0,0,2.53,10.31,55.06,55.06,0,0,0,9.88,14.69,68.88,68.88,0,0,0,14.82,12,78.52,78.52,0,0,0,18.62,8.2,74.73,74.73,0,0,0,21.45,3,73.18,73.18,0,0,0,26.81-4.78,66.49,66.49,0,0,0,21.24-13,59.38,59.38,0,0,0,14-19.2,55.79,55.79,0,0,0,5-23.47q0-12.81-4.52-22.07A49.52,49.52,0,0,0,528.22,162.31Z"/><path class="cls-1" d="M666.62,104.7a17.2,17.2,0,0,0,7.4-1.62,20.37,20.37,0,0,0,6.06-4.36,20,20,0,0,0,4.09-6.42,20.77,20.77,0,0,0,1.48-7.83,21.32,21.32,0,0,0-1.48-7.9,19.8,19.8,0,0,0-4.09-6.5A20.17,20.17,0,0,0,674,65.72a17.07,17.07,0,0,0-7.4-1.63H584a8.79,8.79,0,0,0-2.68.51,8.54,8.54,0,0,1-2.68.52,19.06,19.06,0,0,0-9.44,7.36,20.46,20.46,0,0,0-3.67,11.93V238.73a20.46,20.46,0,0,0,1.41,7.66,19,19,0,0,0,3.95,6.18,20.26,20.26,0,0,0,5.92,4.28,18.12,18.12,0,0,0,7.19,1.76h82.6a17.9,17.9,0,0,0,7.4-1.54,19.72,19.72,0,0,0,6.06-4.2,19.2,19.2,0,0,0,4.09-6.25,21.48,21.48,0,0,0,0-15.67,20.91,20.91,0,0,0-4.09-6.48,18.69,18.69,0,0,0-6.06-4.34,17.9,17.9,0,0,0-7.4-1.54l-62.44-.15V182.39h44a17.72,17.72,0,0,0,7.48-1.62,20,20,0,0,0,6.13-4.36,21,21,0,0,0,4.16-6.42,20.07,20.07,0,0,0,1.55-7.83,21.12,21.12,0,0,0-5.71-14.4,20,20,0,0,0-6.13-4.35,17.58,17.58,0,0,0-7.48-1.63h-44V104.7Z"/><path class="cls-1" d="M863.47,160.84a20.38,20.38,0,0,0-6.06-4.12,18,18,0,0,0-7.4-1.55l-34-.44a17.26,17.26,0,0,0-13.18,5.88,21.62,21.62,0,0,0-3.88,6.33,20.09,20.09,0,0,0-1.41,7.51A20.6,20.6,0,0,0,799,182a19.39,19.39,0,0,0,3.88,6.26,18.26,18.26,0,0,0,5.85,4.19A17.39,17.39,0,0,0,816,194h15.22v15.51a49.18,49.18,0,0,1-17.06,9.07,66.49,66.49,0,0,1-18.32,2.49,53.55,53.55,0,0,1-22.47-4.7,56.64,56.64,0,0,1-17.88-12.71,61.14,61.14,0,0,1-11.73-64.3,58.6,58.6,0,0,1,12.06-18.59,56.31,56.31,0,0,1,17.71-12.34A52.08,52.08,0,0,1,795,104a57.67,57.67,0,0,1,21.52,4.12,54.55,54.55,0,0,1,19,12.94,17.15,17.15,0,0,0,5.93,4.12,17.61,17.61,0,0,0,6.77,1.33,17.4,17.4,0,0,0,7.34-1.62,20.55,20.55,0,0,0,6.14-4.27,20.19,20.19,0,0,0,4.16-6.18,18,18,0,0,0,1.56-7.36,19.18,19.18,0,0,0-5.5-13.53,97.08,97.08,0,0,0-30.66-21.85,89.83,89.83,0,0,0-36.58-7.29A85.51,85.51,0,0,0,769.73,68a92,92,0,0,0-22.27,10.08,93.18,93.18,0,0,0-18.75,15.45,97.82,97.82,0,0,0-14.38,19.94,102.74,102.74,0,0,0-12.47,49.36,98.68,98.68,0,0,0,3.38,26A100.44,100.44,0,0,0,714.76,212a98.32,98.32,0,0,0,14.59,19.64A95.17,95.17,0,0,0,748,246.84a92.57,92.57,0,0,0,21.85,9.86,85.62,85.62,0,0,0,23.89,3.68,102,102,0,0,0,35.39-6.26q17-6.24,33.68-21.26a28.66,28.66,0,0,0,4.44-6.4,17.36,17.36,0,0,0,1.77-8v-44a19.16,19.16,0,0,0-1.48-7.58A18.66,18.66,0,0,0,863.47,160.84Z"/><path class="cls-1" d="M1021.63,70a19.49,19.49,0,0,0-6.14-4.2,18.4,18.4,0,0,0-7.47-1.54,18.75,18.75,0,0,0-7.61,1.54,19.45,19.45,0,0,0-6.13,4.2,20.23,20.23,0,0,0-5.71,14.12v96.67q0,18.69-7.54,28.92t-22.34,10.22q-14.52,0-22.35-9.27t-7.82-30V84.1A20.69,20.69,0,0,0,927,76.3,18.41,18.41,0,0,0,922.88,70a20.22,20.22,0,0,0-6.2-4.2,19.06,19.06,0,0,0-15,0,20.52,20.52,0,0,0-6.13,4.2,18.41,18.41,0,0,0-4.16,6.32,20.69,20.69,0,0,0-1.48,7.8v99a99.32,99.32,0,0,0,4.58,30.75,71.84,71.84,0,0,0,13.25,24.43,59.69,59.69,0,0,0,21.29,16q12.6,5.75,28.82,5.74a71.94,71.94,0,0,0,29-5.59,61.16,61.16,0,0,0,21.85-15.89,70.63,70.63,0,0,0,13.81-24.94,105.55,105.55,0,0,0,4.79-32.89V84.1a20.28,20.28,0,0,0-5.7-14.12Z"/><path class="cls-1" d="M1085.83,70.42a18,18,0,0,0-5.92-4.12,18.84,18.84,0,0,0-14.59,0,17.86,17.86,0,0,0-6,4.12,20,20,0,0,0-4,6.18,19.3,19.3,0,0,0-1.48,7.5V239.34a19.75,19.75,0,0,0,1.48,7.65,19.16,19.16,0,0,0,4,6.1,18.66,18.66,0,0,0,13.25,5.52,18.18,18.18,0,0,0,7.33-1.47,18.56,18.56,0,0,0,5.92-4,19.16,19.16,0,0,0,4-6.1,19.57,19.57,0,0,0,1.48-7.65V84.1a19.12,19.12,0,0,0-1.48-7.5A20,20,0,0,0,1085.83,70.42Z"/><path class="cls-1" d="M1233,85a67.83,67.83,0,0,0-21.19-14.93A61.85,61.85,0,0,0,1186,64.53a59.47,59.47,0,0,0-25.84,5.59,63.2,63.2,0,0,0-20.28,15.16,69.38,69.38,0,0,0-13.24,22.36,83.12,83.12,0,0,0-4.71,28.84,3.77,3.77,0,0,0,.28,1.62,6.5,6.5,0,0,0-.28,2.21V239a21.57,21.57,0,0,0,1.48,8,19.73,19.73,0,0,0,4.16,6.55,19.3,19.3,0,0,0,6.13,4.34,18.22,18.22,0,0,0,7.54,1.54,17.8,17.8,0,0,0,7.47-1.54,17.46,17.46,0,0,0,5.85-4.34,19.88,19.88,0,0,0,3.8-6.55,23.48,23.48,0,0,0,1.34-8l.71-36.64,48.26,49.88a19.77,19.77,0,0,0,6.62,4.64,19,19,0,0,0,7.47,1.54,17.67,17.67,0,0,0,7.47-1.61,20,20,0,0,0,10.22-10.67,20.08,20.08,0,0,0,1.48-7.73,22.15,22.15,0,0,0-1.27-7.43,17.66,17.66,0,0,0-3.94-6.4l-28.2-29a73.74,73.74,0,0,0,17.32-8.68,62.78,62.78,0,0,0,14-12.95,58.11,58.11,0,0,0,9.37-17.14,63.93,63.93,0,0,0,3.38-21.26,73.65,73.65,0,0,0-5.29-28.47A71,71,0,0,0,1233,85Zm-20.1,60.26a30.34,30.34,0,0,1-5.85,9.12,27.6,27.6,0,0,1-8.6,6.18,24.59,24.59,0,0,1-10.43,2.28,24.14,24.14,0,0,1-10.29-2.21,26.43,26.43,0,0,1-8.32-6,28.15,28.15,0,0,1-5.57-8.83,28.76,28.76,0,0,1-2-10.82,33.72,33.72,0,0,1,2-11.33,26.76,26.76,0,0,1,5.57-9.49,25.46,25.46,0,0,1,8.32-5.88,25,25,0,0,1,10.29-2.14,28.52,28.52,0,0,1,10.43,1.92,24.26,24.26,0,0,1,14.45,14.56,31.45,31.45,0,0,1,2.18,11.48A28.62,28.62,0,0,1,1212.91,145.24Z"/><path class="cls-1" d="M1455.64,86.36a71.79,71.79,0,0,0-22.56-15.87,65.82,65.82,0,0,0-27.41-5.81,62.91,62.91,0,0,0-27.07,5.81,66.69,66.69,0,0,0-21.49,15.88,73.23,73.23,0,0,0-14.17,23.52,84.72,84.72,0,0,0-5.07,30.07v99.1a21.55,21.55,0,0,0,1.48,8,19.83,19.83,0,0,0,4.15,6.54,19.3,19.3,0,0,0,6.14,4.34,18.22,18.22,0,0,0,7.54,1.54,17.8,17.8,0,0,0,7.47-1.54,17.46,17.46,0,0,0,5.85-4.34,19.88,19.88,0,0,0,3.8-6.55,23.48,23.48,0,0,0,1.34-8l.71-34.87a62.38,62.38,0,0,0,13.6,6.91,45.43,45.43,0,0,0,15.72,2.65,66,66,0,0,0,27.41-5.8,72.41,72.41,0,0,0,22.56-15.8,74.93,74.93,0,0,0,20.79-52.19,78,78,0,0,0-5.57-30.06A75.15,75.15,0,0,0,1455.64,86.36Zm-18.26,66a36,36,0,0,1-7.19,11,33.47,33.47,0,0,1-10.5,7.43,30.65,30.65,0,0,1-25.09.07,32.38,32.38,0,0,1-10.15-7.13,34,34,0,0,1-6.83-10.6,33.61,33.61,0,0,1-2.54-13,39.4,39.4,0,0,1,2.54-13.76,31,31,0,0,1,17-18.46,29.84,29.84,0,0,1,12.48-2.65,34.35,34.35,0,0,1,12.61,2.35,32.24,32.24,0,0,1,10.5,6.62,30.23,30.23,0,0,1,7.19,11,36.62,36.62,0,0,1,2.68,13.75A33.88,33.88,0,0,1,1437.38,152.37Z"/><path class="cls-1" d="M1610.62,225.5a19.13,19.13,0,0,0-5.92-4.19,17.42,17.42,0,0,0-7.33-1.54l-64-.15V83.22a19.68,19.68,0,0,0-1.48-7.65,19.21,19.21,0,0,0-4-6.11,19,19,0,0,0-5.92-4,18.84,18.84,0,0,0-14.59,0,18.75,18.75,0,0,0-6,4,19.21,19.21,0,0,0-4,6.11,19.5,19.5,0,0,0-1.48,7.65V239.34a19.66,19.66,0,0,0,5.22,13.46,18.47,18.47,0,0,0,12.68,5.81h83.59a18.84,18.84,0,0,0,7.33-1.4,17.58,17.58,0,0,0,5.92-4,18.14,18.14,0,0,0,4-6.11,20.81,20.81,0,0,0,1.41-7.79,20.5,20.5,0,0,0-1.41-7.66A19.16,19.16,0,0,0,1610.62,225.5Z"/><path class="cls-1" d="M1723.67,78.07l-.56-1.62a20.19,20.19,0,0,0-2.54-4.71l-.7-.73-3.25-3a7.55,7.55,0,0,0-3.66-2.14l-.28-.14a18.63,18.63,0,0,0-3.39-1.11,16.81,16.81,0,0,0-3.52-.36c-.85,0-2,.05-3.31.14a12.05,12.05,0,0,0-4,1l-.85.3a18.44,18.44,0,0,0-7.12,5.22,19.88,19.88,0,0,0-4,7.73L1630.07,231a22,22,0,0,0-1.41,7.65A21.22,21.22,0,0,0,1630,246a19.62,19.62,0,0,0,3.88,6.4A20,20,0,0,0,1640,257a17.8,17.8,0,0,0,8,1.77,17.6,17.6,0,0,0,10.5-3.39,20.81,20.81,0,0,0,7.12-9.12l3-8.09h73l3.1,8.09a19.31,19.31,0,0,0,17.91,12.51,18.11,18.11,0,0,0,8.1-1.77,19,19,0,0,0,6.06-4.56,20.15,20.15,0,0,0,3.81-6.4,20.44,20.44,0,0,0,1.34-7.14,22.79,22.79,0,0,0-1.41-7.94Zm-39.89,119.48,21.43-57.83,21.28,57.83Z"/><path class="cls-1" d="M1930.32,76a20.37,20.37,0,0,0-4.16-6.18,20,20,0,0,0-6-4.2,17.11,17.11,0,0,0-7.19-1.54,17.68,17.68,0,0,0-7.47,1.62,18.08,18.08,0,0,0-6.34,5l-52.86,74.75L1793.3,71a16.21,16.21,0,0,0-6.13-5.08,17.82,17.82,0,0,0-15.15,0,19.84,19.84,0,0,0-6.13,4.56A21.73,21.73,0,0,0,1761.8,77a19.85,19.85,0,0,0-1.48,7.5,21,21,0,0,0,1.06,6.62,17.6,17.6,0,0,0,3.45,6l62.87,87.1v55a19.57,19.57,0,0,0,1.48,7.65,19,19,0,0,0,4,6.1,18.56,18.56,0,0,0,5.92,4,19,19,0,0,0,14.66,0,18.71,18.71,0,0,0,9.93-10.15,19.57,19.57,0,0,0,1.48-7.65V184.16l62.17-87.26a22.12,22.12,0,0,0,4.51-13.39A18.48,18.48,0,0,0,1930.32,76Z"/><path class="cls-1" d="M1409.33,344.62h-1.47q-2.44,8.19-5.75,18.14t-6.73,20.82q-3.44,10.86-6.61,21.59l-4.4,23q-1.47,4.86-2.82,10.22t-2.81,10.47q-1.47,5.11-2.69,9.71t-2.45,8.69c-1.8.51-3.83,1.06-6.12,1.66a32.52,32.52,0,0,1-8.07.89q-10.29,0-15.67-3.83t-5.38-11.24a25.24,25.24,0,0,1,.86-6.39q.85-3.31,2.08-7.66,2.21-8.43,6.24-21.2t8.81-27.72q4.77-15,9.79-29.51t9.3-26.82q4.27-12.27,7-19.16,3.42-2.29,10.89-4.22a59.66,59.66,0,0,1,14.81-1.91,52.27,52.27,0,0,1,18.84,3.19q8.31,3.19,10.52,10.09,4.65,13.54,10.16,31.3t11.13,37.17q5.63,19.41,10.89,37.68t9.18,32.82a21.15,21.15,0,0,1-7.83,5.24,31.32,31.32,0,0,1-12.24,2.17q-10,0-14.19-3.83t-6.36-11.5l-7.83-28.61-4.16-21.71q-2.94-11.5-6.12-22.23t-5.88-20.31Q1411.54,352,1409.33,344.62ZM1368,432.76l14.44-30.14h57.26l4.9,30.14Z"/><path class="cls-1" d="M1532.91,343.35v34.74H1498.4v-36q0-16.86,6.73-27.33a39.87,39.87,0,0,1,18.6-15.46,67.34,67.34,0,0,1,26.31-5q17.13,0,25.57,4.72t8.45,15.2a17.69,17.69,0,0,1-1.84,8.18,19.9,19.9,0,0,1-4,5.62,79.31,79.31,0,0,0-10-2.55,64.64,64.64,0,0,0-12-1q-11.51,0-17.38,4.35T1532.91,343.35Zm-34.51,27.33h36.22V467a46.79,46.79,0,0,1-6.85,1.41,67.54,67.54,0,0,1-9.54.64q-10.29,0-15-3.84t-4.78-13.79Zm28.88,12V353.57H1575a29,29,0,0,1,2.45,5.87,27.83,27.83,0,0,1,1.22,8.43q0,7.92-3.3,11.37t-9.18,3.45Zm72.19-73.32a20,20,0,0,1,5.75-14.56,19.53,19.53,0,0,1,14.57-5.88q9,0,14.68,5.88a20.25,20.25,0,0,1,5.63,14.56,20.82,20.82,0,0,1-5.63,14.56q-5.64,6.13-14.68,6.13a19.11,19.11,0,0,1-14.57-6.13A20.58,20.58,0,0,1,1599.47,309.37Zm38.42,110.11h-36.21V346.16a45.76,45.76,0,0,1,6.73-1.54,58,58,0,0,1,9.66-.76q10.52,0,15.17,3.7t4.65,14.18Zm-36.21-19.67h36.21V467a38.49,38.49,0,0,1-6.6,1.41,67.58,67.58,0,0,1-9.55.64q-10.52,0-15.29-3.84t-4.77-13.79Z"/><path class="cls-1" d="M1704.94,420.24l-36.46-.76V300.94a56.94,56.94,0,0,1,6.85-1.53,55.9,55.9,0,0,1,9.55-.77q10.51,0,15.29,3.83t4.77,14Zm-36.46-20.43,36.46.76V467a46.79,46.79,0,0,1-6.85,1.41,67.44,67.44,0,0,1-9.54.64q-10.27,0-15.17-3.84t-4.9-13.79Z"/><path class="cls-1" d="M1733.33,309.37a20,20,0,0,1,5.75-14.56,19.5,19.5,0,0,1,14.56-5.88q9.06,0,14.68,5.88a20.2,20.2,0,0,1,5.63,14.56,20.77,20.77,0,0,1-5.63,14.56q-5.62,6.13-14.68,6.13a19.09,19.09,0,0,1-14.56-6.13A20.58,20.58,0,0,1,1733.33,309.37Zm38.42,110.11h-36.22V346.16a46.08,46.08,0,0,1,6.73-1.54,58.07,58.07,0,0,1,9.67-.76q10.52,0,15.17,3.7t4.65,14.18Zm-36.22-19.67h36.22V467a38.65,38.65,0,0,1-6.61,1.41,67.33,67.33,0,0,1-9.54.64q-10.53,0-15.3-3.84t-4.77-13.79Z"/><path class="cls-1" d="M1849.32,471.34q-25,0-39.76-10.22t-14.81-30.4q0-17.37,10.28-26.7t30.59-11.37l32.55-3.57V386q0-8.68-6.49-12.52t-18.47-3.83A73,73,0,0,0,1825,372a109.74,109.74,0,0,0-16,5.36,16,16,0,0,1-5-6.25,19.64,19.64,0,0,1-2.08-8.82q0-10.72,11.26-15.58a66.14,66.14,0,0,1,16.51-4.47,123.21,123.21,0,0,1,18.24-1.41q25.44,0,40.62,11.12t15.17,34.36v58q0,6.39-3.18,10.34a28.1,28.1,0,0,1-8.08,6.77,62,62,0,0,1-18.23,7.28A104.14,104.14,0,0,1,1849.32,471.34Zm0-28.36a54.15,54.15,0,0,0,11.14-1.15,25.86,25.86,0,0,0,8-2.68V414.62l-20.55,2.05q-8.33.51-13.22,3.57a10.15,10.15,0,0,0-4.89,9.2,11.92,11.92,0,0,0,4.65,9.83Q1839,443,1849.32,443Z"/><path class="cls-1" d="M2007.66,436.85V360h36.21V441.7a20.33,20.33,0,0,1-2.44,10.35,22.37,22.37,0,0,1-7.83,7.53,65.79,65.79,0,0,1-17.26,8.05,79.75,79.75,0,0,1-24.59,3.45q-20.32,0-35.12-7.15a50.48,50.48,0,0,1-22.76-21.59q-7.95-14.43-7.95-35.89,0-22.49,8.2-36.92A53,53,0,0,1,1956.26,348a66.58,66.58,0,0,1,30.84-7.16,54.93,54.93,0,0,1,15.66,2,44.94,44.94,0,0,1,11.26,4.85v31.17a35.52,35.52,0,0,0-9.06-5.62,31.11,31.11,0,0,0-13-2.56,29.74,29.74,0,0,0-15.17,3.83,25.54,25.54,0,0,0-10.28,11.76q-3.66,7.92-3.67,20.18,0,17.88,7.71,26.31t20.92,8.43a30,30,0,0,0,9.55-1.4A32.52,32.52,0,0,0,2007.66,436.85Zm36.21-69.49-36.21.26V300.94a45,45,0,0,1,6.6-1.53,55.9,55.9,0,0,1,9.55-.77q10.76,0,15.41,3.83t4.65,14Z"/><path class="cls-1" d="M2191.44,405.94q0,19.92-7.71,34.61a54.45,54.45,0,0,1-21.66,22.61q-14,7.92-32.79,7.92t-32.79-7.79a53.65,53.65,0,0,1-21.66-22.48q-7.71-14.69-7.71-34.87,0-19.94,7.83-34.49a56,56,0,0,1,21.9-22.61q14.07-8,32.67-8t32.43,8a56.48,56.48,0,0,1,21.66,22.74Q2191.44,386.27,2191.44,405.94Zm-62.16-35.26a21.41,21.41,0,0,0-18.23,9.2q-6.74,9.19-6.73,26.06,0,17.12,6.61,26.18t18.35,9.07q11.74,0,18.35-9.2t6.61-26.05q0-16.6-6.61-25.93T2129.28,370.68Z"/></svg>